<?xml version="1.0" encoding="utf-8"?>
<!-- Generator: Adobe Illustrator 16.0.0, SVG Export Plug-In . SVG Version: 6.00 Build 0)  -->
<!DOCTYPE svg PUBLIC "-//W3C//DTD SVG 1.1//EN" "http://www.w3.org/Graphics/SVG/1.1/DTD/svg11.dtd">
<svg version="1.1" id="Layer_1" xmlns="http://www.w3.org/2000/svg" xmlns:xlink="http://www.w3.org/1999/xlink" x="0px" y="0px"
	 width="811.92px" height="368.963px" viewBox="0 0 811.92 368.963" enable-background="new 0 0 811.92 368.963"
	 xml:space="preserve">
<g>
	<defs>
		<rect id="SVGID_1_" width="811.92" height="368.963"/>
	</defs>
	<clipPath id="SVGID_2_">
		<use xlink:href="#SVGID_1_"  overflow="visible"/>
	</clipPath>
	<path clip-path="url(#SVGID_2_)" fill="#F1F2F2" d="M290.997,229.114h4.771l11.321,31.169h-4.623l-3.265-9.333h-12.23l-3.383,9.333
		h-4.316L290.997,229.114z M298.005,247.52l-4.794-13.781l-4.983,13.781H298.005z"/>
	<path clip-path="url(#SVGID_2_)" fill="#F1F2F2" d="M310.506,237.668h3.739v3.018c0.755-1.031,1.6-1.85,2.509-2.398
		c1.3-0.845,2.812-1.277,4.539-1.277c2.605,0,4.784,0.994,6.602,2.967c1.79,1.966,2.686,4.783,2.686,8.459
		c0,4.938-1.299,8.465-3.894,10.608c-1.654,1.345-3.556,2.015-5.758,2.015c-1.718,0-3.162-0.373-4.319-1.128
		c-0.682-0.425-1.444-1.15-2.276-2.205v11.625h-3.827V237.668z M324.884,255.479c1.173-1.492,1.782-3.723,1.782-6.702
		c0-1.806-0.271-3.358-0.795-4.664c-0.994-2.495-2.808-3.753-5.448-3.753c-2.656,0-4.475,1.325-5.462,3.979
		c-0.519,1.415-0.779,3.194-0.779,5.384c0,1.756,0.261,3.239,0.779,4.478c0.993,2.351,2.814,3.526,5.462,3.526
		C322.208,257.726,323.685,256.972,324.884,255.479"/>
	<path clip-path="url(#SVGID_2_)" fill="#F1F2F2" d="M335.116,237.668h3.736v3.018c0.773-1.031,1.599-1.85,2.505-2.398
		c1.293-0.845,2.812-1.277,4.558-1.277c2.596,0,4.771,0.994,6.583,2.967c1.793,1.966,2.708,4.783,2.708,8.459
		c0,4.938-1.312,8.465-3.91,10.608c-1.651,1.345-3.562,2.015-5.741,2.015c-1.731,0-3.169-0.373-4.339-1.128
		c-0.678-0.425-1.436-1.15-2.279-2.205v11.625h-3.82V237.668z M349.487,255.479c1.189-1.492,1.789-3.723,1.789-6.702
		c0-1.806-0.262-3.358-0.786-4.664c-1.003-2.495-2.821-3.753-5.461-3.753c-2.644,0-4.465,1.325-5.448,3.979
		c-0.517,1.415-0.79,3.194-0.79,5.384c0,1.756,0.273,3.239,0.79,4.478c0.992,2.351,2.805,3.526,5.448,3.526
		C346.805,257.726,348.308,256.972,349.487,255.479"/>
	<path clip-path="url(#SVGID_2_)" fill="#F1F2F2" d="M362.308,253.168c0.129,1.27,0.451,2.243,0.983,2.921
		c0.979,1.237,2.682,1.843,5.113,1.843c1.444,0,2.714-0.302,3.811-0.921c1.095-0.606,1.656-1.573,1.656-2.851
		c0-0.979-0.441-1.728-1.338-2.228c-0.548-0.315-1.653-0.666-3.304-1.079l-3.079-0.776c-1.982-0.475-3.431-1.004-4.352-1.613
		c-1.683-1.031-2.518-2.455-2.518-4.284c0-2.149,0.793-3.888,2.358-5.226c1.571-1.324,3.686-1.996,6.336-1.996
		c3.478,0,5.974,1.014,7.508,3.019c0.951,1.275,1.431,2.643,1.398,4.106h-3.601c-0.09-0.845-0.396-1.621-0.945-2.328
		c-0.896-1.002-2.448-1.495-4.674-1.495c-1.483,0-2.605,0.269-3.34,0.825c-0.772,0.542-1.15,1.277-1.15,2.173
		c0,0.993,0.496,1.779,1.493,2.385c0.589,0.336,1.439,0.64,2.557,0.927l2.571,0.599c2.791,0.677,4.669,1.306,5.609,1.936
		c1.503,0.974,2.25,2.514,2.25,4.6c0,2.03-0.779,3.79-2.337,5.241c-1.557,1.486-3.93,2.224-7.099,2.224
		c-3.44,0-5.86-0.779-7.285-2.312c-1.425-1.53-2.179-3.438-2.289-5.688H362.308z"/>
	<path clip-path="url(#SVGID_2_)" fill="#F1F2F2" d="M114.244,221.263v-5.521c-3.369,3.223-8.397,6.592-13.452,6.592
		c-11.453,0-20.467-12.524-20.467-37.144c0-22.763,10.242-37.901,20.467-37.901c4.903,0,8.256,1.219,12.228,3.821v-41.868h18.959
		v112.021H114.244z M113.02,164.098c-1.834-0.924-3.205-1.198-5.345-1.198c-4.584,0-8.862,5.167-8.862,22.29
		c0,17.888,3.978,21.555,8.862,21.555c2.14,0,3.662-0.462,5.345-1.22V164.098z"/>
	<path clip-path="url(#SVGID_2_)" fill="#F1F2F2" d="M151.843,140.264c-6.425,0-11.171-5.814-11.171-12.071
		c0-6.417,4.746-12.075,11.171-12.075c6.415,0,11.15,5.658,11.15,12.075C162.993,134.45,158.258,140.264,151.843,140.264
		 M142.371,148.969h18.946v72.294h-18.946V148.969z"/>
	<path clip-path="url(#SVGID_2_)" fill="#F1F2F2" d="M198.761,251.353c-8.418,0-13.008-0.744-18.655-2.437l1.827-15.116
		c3.82,1.058,7.801,1.677,12.078,1.677c6.259,0,8.253-3.222,8.253-9.794v-7.635c-3.503,2.597-7.021,4.285-11.611,4.285
		c-11.457,0-21.093-12.84-21.093-36.683c0-22.015,9.937-37.743,21.235-37.743c5.956,0,10.254,3.055,12.69,6.562v-5.5h17.721v77.036
		C221.206,243.269,213.108,251.353,198.761,251.353 M202.264,164.412c-1.676-0.775-3.197-1.237-5.354-1.237
		c-4.575,0-8.853,7.191-8.853,22.162c0,17.122,4.277,21.408,9.164,21.408c2.138,0,3.366-0.308,5.042-1.22V164.412z"/>
	<path clip-path="url(#SVGID_2_)" fill="#F1F2F2" d="M241.081,140.264c-6.436,0-11.163-5.814-11.163-12.071
		c0-6.417,4.728-12.075,11.163-12.075c6.414,0,11.16,5.658,11.16,12.075C252.241,134.45,247.495,140.264,241.081,140.264
		 M231.59,148.969h18.952v72.294H231.59V148.969z"/>
	<path clip-path="url(#SVGID_2_)" fill="#F1F2F2" d="M283.549,165.327v33.31c0,4.884,1.69,6.889,4.746,6.889
		c1.977,0,3.82-0.618,4.745-0.925l1.222,15.737c-4.139,1.232-8.265,1.996-12.392,1.996c-11.611,0-17.259-5.509-17.259-17.121
		v-39.886H256.2v-12.674l8.411-3.998v-10.374l18.938-10.247v20.936h11.622v16.357H283.549z"/>
	<path clip-path="url(#SVGID_2_)" fill="#F1F2F2" d="M328.787,221.263v-7.183c-3.053,4.42-8.703,8.253-14.67,8.253
		c-8.553,0-16.049-8.56-16.049-22.931c0-13.447,7.026-23.988,18.187-23.988c5.028,0,8.406,1.218,11.624,3.202v-6.57
		c0-5.955-2.608-7.948-9.023-7.948c-4.291,0-8.556,0.913-13.137,2.455l-1.837-15.905c5.2-1.836,11.615-3.359,17.721-3.359
		c16.966,0,24.91,6.876,24.91,22.163v51.812H328.787z M327.879,188.244c-1.38-0.764-3.06-1.068-5.052-1.068
		c-3.056,0-6.572,2.139-6.572,10.539c0,7.644,3.517,10.09,6.737,10.09c1.966,0,3.507-0.464,4.887-1.06V188.244z"/>
	<rect x="356.444" y="109.242" clip-path="url(#SVGID_2_)" fill="#F1F2F2" width="18.949" height="112.021"/>
	<g clip-path="url(#SVGID_2_)">
		<path fill="#F1F2F2" d="M618.341,191.989c-0.745-0.129-1.342-0.238-1.793-0.364c-0.433-0.12-0.688-0.067-0.76,0.187
			c-1.43,2.348-2.167,4.685-2.207,7.031c-0.006,0.382,0.017,0.758,0.053,1.131c8.381-5.324,13.619-8.874,15.68-10.659
			c0.251-0.214,0.449-0.38,0.611-0.512c-1.503,0.802-3.111,1.602-4.843,2.4c-1.43,0.548-2.729,0.863-3.876,0.902
			C620.056,192.156,619.104,192.105,618.341,191.989z"/>
		<path fill="#F1F2F2" d="M625.562,182.036c2.068-1.169,3.714-2.337,4.948-3.508c1.23-1.179,1.374-2.327,0.412-3.457
			c-0.531-0.56-1.918-0.285-4.106,0.844c-2.202,1.141-3.771,2.407-4.771,3.833c-1.004,1.396-1.175,2.437-0.535,3.085
			C622.138,183.48,623.494,183.215,625.562,182.036z"/>
		<path fill="#F1F2F2" d="M412.152,155.787c8.515-26.436,12.97-40.552,13.42-42.331c0.432-1.768,1.164-3.329,2.202-4.656
			c1.032-1.336,2.224-2.535,3.575-3.585c1.356-1.053,3.086-1.386,5.187-1.032c2.111,0.374,3.676,1.238,4.717,2.612
			c1.041,1.367,1.767,3.037,2.195,4.971c0.441,1.937,0.2,3.557-0.702,4.844c-0.93,1.308-0.79,2.327,0.344,3.095
			c1.154,0.775,5.216,2.318,12.18,4.606c6.957,2.31,12.586,5.041,16.911,8.193c4.34,3.154,7.922,6.985,10.736,11.524
			c2.823,4.519,4.454,7.76,4.898,9.687c0.429,1.955,0.671,4.951,0.7,8.989c0.021,1.535-0.111,3.01-0.393,4.425
			c2.511-1.349,5.226-2.34,8.149-2.962c5.318-0.413,8.571,0.502,9.716,2.712c1.147,2.219,1.692,5.049,1.615,8.497
			c-0.081,3.438-1.671,6.355-4.775,8.724c-3.104,2.396-7.191,4.755-12.288,7.104c-1.425,0.548-2.718,0.863-3.868,0.902
			c-1.154,0.051-2.096,0-2.862-0.116c-0.758-0.129-1.354-0.238-1.79-0.364c-0.436-0.12-0.695-0.067-0.773,0.187
			c-1.425,2.348-2.163,4.685-2.212,7.031c-0.028,2.341,0.723,4.5,2.28,6.495c1.53,1.978,3.271,3.135,5.177,3.447
			c1.915,0.325,3.9,0.267,5.963-0.174c2.063-0.452,5.894-1.848,11.448-4.198c2.545-1.067,4.718-2.105,6.554-3.118
			c1.297-2.077,3.323-4.896,6.076-8.455c4.411-5.695,8.665-10.382,12.76-14.007c4.098-3.645,8.44-6.749,13.065-9.282
			c4.61-2.555,7.812-4.088,9.639-4.676c1.839-0.482,3.854-0.552,6.032-0.237c2.175,0.314,3.939,1.003,5.244,2.063
			c1.319,1.062,2.566,3.124,3.749,6.199c1.203,3.056,0.665,5.129-1.602,6.18c-2.27,1.051-4.316,0.677-6.135-1.091
			c-1.831-1.788-3.752-2.152-5.729-1.09c-1.982,1.051-3.959,2.121-5.909,3.19c-1.938,1.103-4.345,2.831-7.214,5.158
			c-2.87,2.358-5.806,5.355-8.819,8.99c-3.012,3.635-4.688,5.942-5.008,6.974c-0.31,1.003,0.469,0.874,2.324-0.432
			c1.867-1.296,4.73-3.253,8.595-5.877c3.842-2.631,8.703-5.322,14.539-8.073c5.841-2.75,9.539-3.811,11.086-3.201
			c1.548,0.598,2.886,1.708,3.994,3.309c1.115,1.642,1.757,3.027,1.905,4.194c0.178,1.18-0.01,2.114-0.52,2.801
			c-0.531,0.677-1.122,2.241-1.799,4.666c-0.667,2.427-0.612,4.764,0.179,7.033c0.805,2.264,1.799,3.814,3.056,4.668
			c1.153,0.802,2.742,1.048,4.732,0.76c0.001-1.901,0.217-4.161,0.673-6.82c1-5.867,3.749-15.413,8.288-28.686
			c4.532-13.243,8.313-23.018,11.325-29.287c3.018-6.267,6.125-11.905,9.301-16.915c3.172-5.099,5.818-7.172,7.931-6.181
			c2.104,0.964,3.243,2.222,3.41,3.743c0.148,1.532-3.292,9.431-10.316,23.657c-7.043,14.225-12.141,27.468-15.268,39.717
			c-3.153,12.262-4.231,19.135-3.278,20.679c0.951,1.532,2.65,1.982,5.113,1.338c1.807-0.48,5.66-2.482,11.543-6
			c-0.66-1.881-1.006-4.31-1.047-7.281c-0.048-3.43,0.758-7.173,2.385-11.22c1.629-4.048,3.466-7.396,5.55-10.079
			c2.056-2.653,4.866-5.354,8.403-8.056c3.526-2.702,7.572-4.539,12.099-5.502c5.328-0.413,8.56,0.502,9.726,2.712
			c1.146,2.219,1.69,5.049,1.605,8.497c-0.09,3.438-1.66,6.355-4.765,8.724c-1.964,1.521-4.338,3.026-7.11,4.523
			c-0.428,0.484-2.202,2.205-5.346,5.185c-4.28,4.058-7.701,7.269-10.263,9.653c0.325,0.641,0.715,1.268,1.188,1.877
			c1.547,1.978,3.271,3.135,5.187,3.447c1.912,0.325,3.891,0.267,5.97-0.174c2.054-0.452,5.871-1.848,11.444-4.198
			c4.507-1.892,7.887-3.696,10.177-5.412c1.366-5.127,2.881-11.032,4.543-17.74c2.865-11.24,5.621-16.74,8.278-16.493
			c2.653,0.244,4.671,1.443,6.031,3.624c1.345,2.19,1.192,4.882-0.422,8.075c-1.622,3.201-1.789,4.677-0.486,4.489
			c1.312-0.206,3.058-1.012,5.192-2.428c2.15-1.423,4.185-2.553,6.139-3.397c1.95-0.846,3.517-1.405,4.699-1.641
			c1.199-0.246,3.505,0.176,6.874,1.217c3.358,1.053,6.562,2.525,9.593,4.432c1.011,0.637,2.144,1.06,3.378,1.305
			c0.064-0.216,0.12-0.443,0.194-0.646c1.147-3.145,2.847-5.885,5.116-8.185c2.275-2.299,4.999-4.263,8.175-5.895
			c2.594-1.298,5.186-2.222,7.781-2.786c-10.544-79.74-78.783-141.28-161.412-141.28c-89.933,0-162.826,72.902-162.826,162.83
			c0,4.331,0.173,8.621,0.505,12.866C402.249,187.804,406.308,173.95,412.152,155.787z"/>
		<path fill="#F1F2F2" d="M462.06,141.66c-4.108-2.465-8.687-4.469-13.782-6.002c-5.013-1.611-8.691-2.858-11.074-3.693
			c-2.391-0.855-4.279,0.922-5.673,5.335c-1.389,4.399-2.647,8.202-3.756,11.396c-1.115,3.19-2.408,7.092-3.881,11.698
			c-1.464,4.618-3.987,13.175-7.569,25.721c-3.572,12.522-5.616,20.03-6.131,22.497c-0.536,2.455-0.607,4.016-0.236,4.667
			c0.352,0.638,3.533,0.125,9.539-1.586c5.993-1.695,11.441-3.878,16.328-6.54c4.877-2.663,10.712-6.887,17.473-12.625
			c6.746-5.727,12.121-11.492,16.086-17.269c3.976-5.796,5.919-10.237,5.842-13.352c-0.071-3.104-1.258-6.641-3.569-10.609
			C469.348,147.337,466.156,144.126,462.06,141.66z"/>
		<path fill="#F1F2F2" d="M717.608,177.075c-2.636,3.113-4.138,6.788-4.537,11.033c-0.403,4.242-0.299,7.169,0.3,8.781
			c0.6,1.631,1.244,4.783,1.968,9.462c0.705,4.703,0.234,8.714-1.442,12.071c-1.664,3.354-3.452,5.807-5.357,7.337
			c-1.905,1.535-4.265,2.664-7.092,3.392c-2.83,0.729-5.236,1.101-7.205,1.101c-2.002,0-4.126-0.481-6.384-1.465
			c-2.272-0.95-3.658-2.965-4.174-6.002c-0.528-3.014,3.649-8.656,12.518-16.847c8.869-8.211,9.558-8.45,2.086-0.739
			c-7.483,7.725-10.399,12.516-8.769,14.373c1.628,1.868,3.578,2.358,5.845,1.463c2.249-0.891,4.048-2.082,5.354-3.572
			c1.328-1.496,2.29-3.334,2.928-5.464c0.642-2.15,0.928-4.127,0.842-5.942c-0.077-1.817-0.703-5.876-1.851-12.124
			c-0.745-4.057-1-7.453-0.78-10.207c-3.606,0.863-7.256,1.261-10.961,1.169c-6.317-0.176-11.188,0.601-14.661,2.29
			c-3.469,1.699-6.377,3.586-8.759,5.655c-2.383,2.063-4.606,5.445-6.615,10.181c-2.04,4.733-3.582,8.714-4.661,11.954
			c-1.073,3.223-2.025,5.866-2.859,7.94c-0.825,2.059-2.546,3.162-5.119,3.278c-2.592,0.118-4.298-0.846-5.129-2.847
			c-0.836-2.024-1.041-3.351-0.6-3.95c0.436-0.608,1.632-4.312,3.577-11.103c0.384-1.345,0.791-2.805,1.21-4.327
			c-1.032,1.021-2.113,2.041-3.292,3.062c-3.148,2.71-5.709,4.773-7.691,6.25c-1.985,1.451-4.639,2.766-7.93,3.938
			c-3.305,1.168-6.538,1.529-9.727,1.09c-3.162-0.432-5.548-1.198-7.147-2.239c-1.588-1.062-3.049-2.331-4.409-3.763
			c-0.223-0.238-0.428-0.495-0.638-0.748c-0.44,0.472-0.882,0.94-1.321,1.425c-2.631,2.856-5.835,5.346-9.598,7.438
			c-3.771,2.103-7.073,3.272-9.903,3.466c-2.828,0.199-4.887-0.48-6.209-2.002c-1.296-1.531-2.554-3.407-3.746-5.58
			c-0.101-0.183-0.182-0.397-0.267-0.605c-0.344,0.258-0.677,0.491-0.987,0.673c-1.989,1.171-3.536,1.731-4.646,1.679
			c-1.111-0.027-2.566-0.392-4.349-1.068c-1.783-0.707-3.48-1.78-5.068-3.244c-1.595-1.432-2.849-3.21-3.768-5.312
			c-0.903-2.103-1.512-3.656-1.828-4.674c-0.322-1.006-1.061-2.116-2.217-3.343c-1.152-1.196-2.558-1.465-4.217-0.777
			c-1.69,0.698-4.598,2.556-8.782,5.628c-4.172,3.075-8.074,5.609-11.677,7.585c-3.623,1.996-6.853,3.37-9.725,4.138
			c-2.854,0.766-4.701,1.031-5.541,0.786c-0.839-0.246-1.741-1.148-2.735-2.731c-0.992-1.592-1.576-3.301-1.741-5.158
			c-0.044-0.569-0.038-1.141-0.008-1.713c-2.54,2.157-4.66,3.852-6.355,5.114c-1.994,1.451-4.639,2.766-7.924,3.938
			c-3.315,1.168-6.547,1.529-9.716,1.09c-3.197-0.432-5.573-1.198-7.173-2.239c-1.589-1.062-3.049-2.331-4.409-3.763
			c-1.354-1.456-2.46-3.172-3.324-5.158c-0.889-1.976-1.338-4.688-1.377-8.123c-0.011-1.314,0.099-2.675,0.327-4.081
			c-0.484,0.535-0.96,1.064-1.455,1.605c-3.938,4.261-9.332,8.633-16.222,13.095c-6.876,4.438-13.526,7.966-19.961,10.6
			c-6.444,2.624-12.792,4.461-19.02,5.518c-2.566,0.433-4.72,0.737-6.501,0.925c18.589,69.476,81.957,120.638,157.293,120.638
			c89.937,0,162.834-72.902,162.834-162.84c0-4.156-0.158-8.274-0.464-12.353C722.473,172.446,720.117,174.082,717.608,177.075z"/>
		<path fill="#F1F2F2" d="M491.02,182.036c2.067-1.169,3.728-2.337,4.952-3.508c1.237-1.179,1.374-2.327,0.412-3.457
			c-0.561-0.56-1.927-0.285-4.105,0.844c-2.187,1.141-3.772,2.407-4.771,3.833c-0.996,1.396-1.157,2.437-0.528,3.085
			C487.606,183.48,488.947,183.215,491.02,182.036z"/>
	</g>
</g>
</svg>
